<svg xmlns="http://www.w3.org/2000/svg" viewBox="0 0 220 240" width="220" height="240">
  <defs>
    <radialGradient id="curlGrad" cx="50%" cy="30%" r="70%">
      <stop offset="0%" style="stop-color:#8b6914"/>
      <stop offset="100%" style="stop-color:#5c4510"/>
    </radialGradient>
  </defs>
  <ellipse cx="110" cy="55" rx="100" ry="58" fill="url(#curlGrad)"/>
  <circle cx="30" cy="90" r="22" fill="#7a5a12"/><circle cx="55" cy="75" r="20" fill="#8b6914"/>
  <circle cx="80" cy="65" r="18" fill="#7a5a12"/><circle cx="110" cy="60" r="20" fill="#8b6914"/>
  <circle cx="140" cy="65" r="18" fill="#7a5a12"/><circle cx="165" cy="75" r="20" fill="#8b6914"/>
  <circle cx="190" cy="90" r="22" fill="#7a5a12"/>
  <circle cx="25" cy="130" r="24" fill="#6b4e10"/><circle cx="55" cy="120" r="22" fill="#7a5a12"/>
  <circle cx="85" cy="115" r="20" fill="#6b4e10"/><circle cx="110" cy="110" r="22" fill="#7a5a12"/>
  <circle cx="135" cy="115" r="20" fill="#6b4e10"/><circle cx="165" cy="120" r="22" fill="#7a5a12"/>
  <circle cx="195" cy="130" r="24" fill="#6b4e10"/>
  <circle cx="35" cy="170" r="22" fill="#5c4510"/><circle cx="70" cy="165" r="20" fill="#6b4e10"/>
  <circle cx="110" cy="160" r="22" fill="#5c4510"/><circle cx="150" cy="165" r="20" fill="#6b4e10"/>
  <circle cx="185" cy="170" r="22" fill="#5c4510"/>
  <circle cx="50" cy="210" r="20" fill="#4a3810"/><circle cx="110" cy="205" r="22" fill="#5c4510"/>
  <circle cx="170" cy="210" r="20" fill="#4a3810"/>
</svg>
