<svg xmlns="http://www.w3.org/2000/svg" viewBox="0 0 200 280" width="200" height="280">
  <defs>
    <linearGradient id="ponyGrad" x1="0%" y1="0%" x2="0%" y2="100%">
      <stop offset="0%" style="stop-color:#2a1810"/>
      <stop offset="100%" style="stop-color:#1a0e08"/>
    </linearGradient>
  </defs>
  <ellipse cx="100" cy="50" rx="95" ry="55" fill="url(#ponyGrad)"/>
  <path d="M20,65 Q15,100 25,130 L30,130 Q20,100 25,65 Z" fill="url(#ponyGrad)"/>
  <path d="M180,65 Q185,100 175,130 L170,130 Q180,100 175,65 Z" fill="url(#ponyGrad)"/>
  <ellipse cx="155" cy="80" rx="18" ry="25" fill="url(#ponyGrad)" transform="rotate(30,155,80)"/>
  <path d="M155,95 Q170,150 165,220 Q160,260 155,275 Q145,260 150,220 Q155,150 145,95" fill="url(#ponyGrad)"/>
  <ellipse cx="155" cy="100" rx="8" ry="5" fill="#3d2314"/>
</svg>
